<svg width="16" height="16" viewBox="0 0 16 16" fill="none" xmlns="http://www.w3.org/2000/svg">
<path d="M1.95732 11.1857L8 1.16803L14.0427 11.1857H1.95732Z" stroke="#2F3137"/>
<path d="M15.5 7.85714C15.5 11.7895 12.163 15.0143 8 15.0143C3.837 15.0143 0.5 11.7895 0.5 7.85714C0.5 3.92477 3.837 0.699997 8 0.699997C12.163 0.699997 15.5 3.92477 15.5 7.85714Z" stroke="#2F3137"/>
<path d="M8 6.13092L8.2963 7.00376L8.41148 7.34304H8.76977H9.666L8.96004 7.83396L8.65107 8.04882L8.77205 8.40519L9.05345 9.23415L8.28546 8.70009L8 8.50158L7.71454 8.70009L6.94655 9.23415L7.22796 8.40519L7.34893 8.04882L7.03996 7.83396L6.334 7.34304H7.23023H7.58852L7.7037 7.00376L8 6.13092Z" stroke="#2F3137"/>
</svg>

