<svg width="16" height="16" viewBox="0 0 16 16" fill="none" xmlns="http://www.w3.org/2000/svg">
<path d="M1.95732 11.1857L8 1.16803L14.0427 11.1857H1.95732Z" stroke="#2F3137"/>
<path d="M15.5 7.85714C15.5 11.7895 12.163 15.0143 8 15.0143C3.837 15.0143 0.5 11.7895 0.5 7.85714C0.5 3.92477 3.837 0.699997 8 0.699997C12.163 0.699997 15.5 3.92477 15.5 7.85714Z" stroke="#2F3137"/>
<path d="M7.99998 6.13093L8.29628 7.00376L8.41146 7.34304H8.76975H9.66598L8.96002 7.83396L8.65105 8.04882L8.77202 8.40519L9.05343 9.23415L8.28545 8.70009L7.99998 8.50158L7.71452 8.70009L6.94654 9.23415L7.22795 8.40519L7.34892 8.04882L7.03995 7.83396L6.33399 7.34304H7.23022H7.58851L7.70369 7.00376L7.99998 6.13093Z" stroke="#2F3137"/>
</svg>
