<svg xmlns="http://www.w3.org/2000/svg" xmlns:xlink="http://www.w3.org/1999/xlink" width="24" height="24" viewBox="0 0 24 24">
  <defs>
    <clipPath id="clip-logo_2">
      <rect width="24" height="24" />
    </clipPath>
  </defs>
  <g id="logo_2" data-name="logo – 2" clip-path="url(#clip-logo_2)">
    <rect width="24" height="24" fill="#fff" />
    <path id="Union_1" data-name="Union 1" d="M-6944.224-632.963a7.332,7.332,0,0,1-2.054-.263q-2.721-.777-2.723-4.8v-.984h14.876v6.045Zm-4.777-8.1v-5.881h14.876v5.881Zm9.4-7.762v-1.519a7.727,7.727,0,0,1,.459-2.973,2.858,2.858,0,0,1,.546-.853,3.247,3.247,0,0,1,.9-.579,4.651,4.651,0,0,1,1.771-.251h1.224v6.175Z" transform="translate(6954 655.811)" fill="#ef3351" stroke="#5e43f9" stroke-width="1"/>
  </g>
</svg>
